<svg xmlns="http://www.w3.org/2000/svg" viewBox="0 0 1000 700"><rect width="1000" height="700" fill="#f8f5ee"/><circle cx="800" cy="135" r="70" fill="#e8c9bd"/><path d="M0 475c175-70 280 45 445 0s310-47 555 8v217H0z" fill="#dfeaec"/><path d="M0 540c150-68 310 52 500 0s335-40 500 0" fill="none" stroke="#10334c" stroke-width="10"/><path d="M670 385h95l-14-224h-64z" fill="#fffefb" stroke="#10334c" stroke-width="9"/><path d="M657 160h120l-24-39h-73z" fill="#10334c"/><path d="M717 121V83" stroke="#10334c" stroke-width="9"/><path d="M152 441h278l48 88H104z" fill="#fffefb" stroke="#10334c" stroke-width="9"/><path d="M169 468h244" stroke="#c96f61" stroke-width="18"/><path d="M205 529v70M379 529v70" stroke="#10334c" stroke-width="9"/></svg>